<?xml version='1.0' encoding='UTF-8'?>
<!DOCTYPE svg PUBLIC "-//W3C//DTD SVG 1.0//EN" "http://www.w3.org/TR/2001/REC-SVG-20010904/DTD/svg10.dtd">
<svg viewBox="0 0 256 520" xmlns="http://www.w3.org/2000/svg" xmlns:inkspace="http://www.inkscape.org/namespaces/inkscape" xmlns:xlink="http://www.w3.org/1999/xlink">
  <defs id="defs_block">
    <filter height="1.504" id="filter_blur" inkspace:collect="always" width="1.1575" x="-0.07875" y="-0.252">
      <feGaussianBlur id="feGaussianBlur3780" inkspace:collect="always" stdDeviation="4.2" />
    </filter>
  </defs>
  <title>blockdiag</title>
  <desc />
  <rect fill="rgb(0,0,0)" height="40" stroke="rgb(0,0,0)" style="filter:url(#filter_blur);opacity:0.7;fill-opacity:1" width="128" x="67" y="46" />
  <rect fill="rgb(0,0,0)" height="40" stroke="rgb(0,0,0)" style="filter:url(#filter_blur);opacity:0.7;fill-opacity:1" width="128" x="67" y="126" />
  <rect fill="rgb(0,0,0)" height="40" stroke="rgb(0,0,0)" style="filter:url(#filter_blur);opacity:0.7;fill-opacity:1" width="128" x="67" y="446" />
  <rect fill="rgb(0,0,0)" height="40" stroke="rgb(0,0,0)" style="filter:url(#filter_blur);opacity:0.7;fill-opacity:1" width="128" x="67" y="206" />
  <rect fill="rgb(0,0,0)" height="40" stroke="rgb(0,0,0)" style="filter:url(#filter_blur);opacity:0.7;fill-opacity:1" width="128" x="67" y="286" />
  <rect fill="rgb(0,0,0)" height="40" stroke="rgb(0,0,0)" style="filter:url(#filter_blur);opacity:0.7;fill-opacity:1" width="128" x="67" y="366" />
  <rect fill="rgb(255,255,255)" height="40" stroke="rgb(0,0,0)" width="128" x="64" y="40" />
  <text fill="rgb(0,0,0)" font-family="sans-serif" font-size="11" font-style="normal" font-weight="normal" text-anchor="middle" textLength="109" x="128" y="66">Understand Dataset</text>
  <rect fill="rgb(255,255,255)" height="40" stroke="rgb(0,0,0)" width="128" x="64" y="120" />
  <text fill="rgb(0,0,0)" font-family="sans-serif" font-size="11" font-style="normal" font-weight="normal" text-anchor="middle" textLength="91" x="128" y="146">Model Selection</text>
  <rect fill="rgb(255,255,255)" height="40" stroke="rgb(0,0,0)" width="128" x="64" y="440" />
  <text fill="rgb(0,0,0)" font-family="sans-serif" font-size="11" font-style="normal" font-weight="normal" text-anchor="middle" textLength="115" x="128" y="459">Survival Analysis &amp;</text>
  <text fill="rgb(0,0,0)" font-family="sans-serif" font-size="11" font-style="normal" font-weight="normal" text-anchor="middle" textLength="67" x="128" y="472">Forecasting</text>
  <rect fill="rgb(255,255,255)" height="40" stroke="rgb(0,0,0)" width="128" x="64" y="200" />
  <text fill="rgb(0,0,0)" font-family="sans-serif" font-size="11" font-style="normal" font-weight="normal" text-anchor="middle" textLength="115" x="128" y="226">Order Determination</text>
  <rect fill="rgb(255,255,255)" height="40" stroke="rgb(0,0,0)" width="128" x="64" y="280" />
  <text fill="rgb(0,0,0)" font-family="sans-serif" font-size="11" font-style="normal" font-weight="normal" text-anchor="middle" textLength="122" x="128" y="306">Parameter Estimation</text>
  <rect fill="rgb(255,255,255)" height="40" stroke="rgb(0,0,0)" width="128" x="64" y="360" />
  <text fill="rgb(0,0,0)" font-family="sans-serif" font-size="11" font-style="normal" font-weight="normal" text-anchor="middle" textLength="109" x="128" y="386">Diagnostic Testing</text>
  <path d="M 128 80 L 128 112" fill="none" stroke="rgb(0,0,0)" />
  <polygon fill="rgb(0,0,0)" points="128,119 124,112 132,112 128,119" stroke="rgb(0,0,0)" />
  <path d="M 128 160 L 128 192" fill="none" stroke="rgb(0,0,0)" />
  <polygon fill="rgb(0,0,0)" points="128,199 124,192 132,192 128,199" stroke="rgb(0,0,0)" />
  <path d="M 128 240 L 128 272" fill="none" stroke="rgb(0,0,0)" />
  <polygon fill="rgb(0,0,0)" points="128,279 124,272 132,272 128,279" stroke="rgb(0,0,0)" />
  <path d="M 128 320 L 128 352" fill="none" stroke="rgb(0,0,0)" />
  <polygon fill="rgb(0,0,0)" points="128,359 124,352 132,352 128,359" stroke="rgb(0,0,0)" />
  <path d="M 128 400 L 128 420" fill="none" stroke="rgb(0,0,0)" />
  <path d="M 128 420 L 208 420" fill="none" stroke="rgb(0,0,0)" />
  <path d="M 208 420 L 208 105" fill="none" stroke="rgb(0,0,0)" />
  <path d="M 128 105 L 208 105" fill="none" stroke="rgb(0,0,0)" />
  <path d="M 128 105 L 128 112" fill="none" stroke="rgb(0,0,0)" />
  <polygon fill="rgb(0,0,0)" points="128,119 124,112 132,112 128,119" stroke="rgb(0,0,0)" />
  <path d="M 128 400 L 128 432" fill="none" stroke="rgb(0,0,0)" />
  <polygon fill="rgb(0,0,0)" points="128,439 124,432 132,432 128,439" stroke="rgb(0,0,0)" />
  <rect fill="white" height="15" stroke="rgb(0,0,0)" width="41" x="188" y="343" />
  <text fill="rgb(0,0,0)" font-family="sans-serif" font-size="11" font-style="normal" font-weight="normal" text-anchor="middle" textLength="25" x="208" y="356">Fail</text>
</svg>
